# xmcd
# 
# Track frame offsets:
#     150
#     1427
#     18140
#     39577
#     58527
#     74560
#     90075
#     113212
#     134755
#     155250
#     175307
#     190040
#     210307
# 
# Disc length: 2821
# 
# Revision: 13
# Processed by: cddbd v1.5.2PL0 Copyright (c) Steve Scherf et al.
# Submitted via: BonkEnc v1.0.15
# 
DISCID=a30b030d
DTITLE=Chris Whitley - Living With The Law
DYEAR=1991
DGENRE=Blues
TTITLE0=Excerpt
TTITLE1=Living With The Law
TTITLE2=Big Sky Country
TTITLE3=Kick The Stones
TTITLE4=Make The Dirt Stick
TTITLE5=Poison Girl
TTITLE6=Dust Radio
TTITLE7=Phone Call From Leavenworth
TTITLE8=I Forget You Every Day
TTITLE9=Long Way Around
TTITLE10=Look What Love Has Done
TTITLE11=Bordertown
TTITLE12=Bonus Track
EXTD=YEAR: 1991
EXTT0=
EXTT1=
EXTT2=
EXTT3=
EXTT4=
EXTT5=
EXTT6=
EXTT7=
EXTT8=
EXTT9=
EXTT10=
EXTT11=
EXTT12=
PLAYORDER=
